<?xml version="1.0" encoding="UTF-8" standalone="no"?>
<!-- Created with Inkscape (http://www.inkscape.org/) -->

<svg
   width="25.806431mm"
   height="26.3144mm"
   viewBox="0 0 25.806431 26.3144"
   version="1.1"
   id="svg1"
   xmlns="http://www.w3.org/2000/svg"
   xmlns:svg="http://www.w3.org/2000/svg">
  <defs
     id="defs1" />
  <g
     id="layer1"
     transform="translate(-26.526542,-81.93464)">
    <path
       d="m 102.1778,353.06622 q 0.384,-5.76 2.88,-9.216 2.688,-3.648 6.912,-3.648 3.072,0 6.336,1.92 5.76,3.456 5.76,10.176 0,8.064 -7.68,11.52 -3.264,1.344 -4.992,1.344 -3.648,0 -6.912,-3.84 -2.496,-2.688 -2.496,-4.992 0,-1.92 0.192,-3.264 z m 2.112,35.52 q 2.112,-2.112 6.72,-2.112 9.216,0 11.136,6.72 0.576,1.728 0.576,3.456 0,5.376 -4.416,9.792 -2.688,2.688 -6.912,2.688 -4.992,0 -8.064,-3.264 -3.072,-3.264 -3.072,-7.872 0,-5.184 4.032,-9.408 z"
       id="text4"
       style="font-size:192px;font-family:Chippyfont;-inkscape-font-specification:'Chippyfont, Normal';white-space:pre"
       transform="scale(0.26458333)"
       aria-label=":" />
    <path
       d="m 153.44192,310.82622 q 4.992,-1.152 10.944,-1.152 h 0.768 q 25.344,0 31.488,16.128 1.152,2.88 1.152,6.336 0,10.56 -7.872,18.816 -2.88,3.264 -2.88,3.648 0,0.192 2.496,3.456 8.256,9.408 8.256,23.04 0,3.648 -0.96,7.488 -4.032,13.632 -20.352,18.624 -5.376,1.728 -16.32,1.728 -9.6,0 -14.784,-1.344 -5.184,-1.536 -9.024,-4.992 -2.304,-1.92 -2.88,-3.072 -0.576,-1.344 -0.576,-3.648 0,-3.264 2.496,-5.568 2.304,-1.728 6.336,-1.728 4.416,0 8.256,0.192 7.296,0.384 8.64,0.384 4.608,0 8.448,-0.96 5.568,-1.344 7.296,-2.88 1.728,-1.536 1.728,-4.992 0,-6.528 -4.416,-10.944 -4.416,-4.608 -11.904,-5.76 -4.032,-0.576 -6.528,-2.688 -2.304,-2.304 -2.304,-5.568 0,-3.456 2.496,-5.76 2.688,-2.304 8.832,-4.416 9.6,-2.88 9.6,-5.952 0,-0.192 -0.192,-0.576 -0.192,-0.96 -8.448,-2.112 -8.256,-1.152 -16.128,-4.224 -7.872,-3.072 -7.872,-9.216 0,-9.408 14.208,-12.288 z"
       id="text3"
       style="font-size:192px;font-family:Chippyfont;-inkscape-font-specification:'Chippyfont, Normal';white-space:pre"
       transform="scale(0.26458333)"
       aria-label="3" />
  </g>
</svg>
